<svg xmlns="http://www.w3.org/2000/svg" xmlns:xlink="http://www.w3.org/1999/xlink" width="500" zoomAndPan="magnify" viewBox="0 0 375 374.999991" height="500" preserveAspectRatio="xMidYMid meet" version="1.0"><defs><clipPath id="dea1efdb73"><path d="M 164 131 L 298 131 L 298 344.15625 L 164 344.15625 Z M 164 131 " clip-rule="nonzero"/></clipPath><clipPath id="f8457b0e37"><path d="M 53 37 L 324 37 L 324 301 L 53 301 Z M 53 37 " clip-rule="nonzero"/></clipPath><clipPath id="8992731ca0"><path d="M 219.335938 -17.277344 L 361.359375 157.839844 L 142.28125 335.515625 L 0.257812 160.398438 Z M 219.335938 -17.277344 " clip-rule="nonzero"/></clipPath><clipPath id="b27c11d37f"><path d="M 219.335938 -17.277344 L 361.359375 157.839844 L 142.28125 335.515625 L 0.257812 160.398438 Z M 219.335938 -17.277344 " clip-rule="nonzero"/></clipPath><clipPath id="19300039b9"><path d="M 219.335938 -17.277344 L 361.359375 157.839844 L 142.28125 335.515625 L 0.257812 160.398438 Z M 219.335938 -17.277344 " clip-rule="nonzero"/></clipPath></defs><g clip-path="url(#dea1efdb73)"><path fill="#231916" d="M 224.714844 344.097656 C 237.5625 342.0625 273.492188 330.832031 268.722656 301.828125 C 261.585938 258.4375 161.476562 238.089844 164.261719 175.878906 C 166.0625 135.683594 215.597656 128.792969 247.019531 132.542969 C 223.132812 134.78125 190.867188 141.179688 191.113281 173.25 C 191.472656 219.96875 294.175781 246.140625 297.132812 295.769531 C 298.398438 316.992188 281.847656 332.15625 261.910156 338.324219 C 249.804688 342.132812 237.40625 344.054688 224.714844 344.097656 " fill-opacity="1" fill-rule="nonzero"/></g><g clip-path="url(#f8457b0e37)"><g clip-path="url(#8992731ca0)"><g clip-path="url(#b27c11d37f)"><g clip-path="url(#19300039b9)"><path fill="#000000" d="M 298.773438 103.390625 C 320.460938 130.136719 321.132812 168.480469 304.222656 204.179688 L 317.988281 193.015625 C 329.894531 153.828125 324.035156 111.851562 298.335938 80.164062 C 254.710938 26.371094 170.28125 22.503906 109.796875 71.558594 C 49.308594 120.613281 35.664062 204.023438 79.289062 257.8125 C 104.988281 289.503906 144.851562 303.902344 185.652344 300.34375 L 199.417969 289.179688 C 161 298.351562 123.617188 289.777344 101.925781 263.035156 C 68.382812 221.675781 85.210938 152.375 139.578125 108.28125 C 193.945312 64.1875 265.191406 61.988281 298.773438 103.390625 Z M 298.773438 103.390625 " fill-opacity="1" fill-rule="nonzero"/></g></g></g></g></svg>